<svg xmlns="http://www.w3.org/2000/svg" width="18" height="18" viewBox="0 0 65 64" fill="none"><g clip-path="url(#clip0_8651_4614)"><rect x="0.205444" width="64" height="64" rx="16" class="fill-vidiq"></rect><path d="M10.7442 12.1174L60.2722 32.5766L10.7442 53.0357V12.1174Z" class="fill-eclipse"></path><g filter="url(#filter0_dddd_8651_4614)"><path fill-rule="evenodd" clip-rule="evenodd" d="M47.3321 39.444L51.9648 43.96L48.4282 47.5649L43.6457 42.905C41.871 43.7474 39.5611 44.1789 36.6004 44.1789C28.3006 44.1789 24.4665 40.5428 24.4665 32.2029C24.4665 24.1091 28.6303 20.2269 36.6004 20.2269C44.258 20.2269 48.7536 24.1091 48.76 32.2029C48.76 35.1406 48.3426 37.5675 47.3321 39.444ZM36.6004 26.4234C33.0596 26.4234 30.8374 28.5167 30.8374 32.2029C30.8374 35.8891 33.036 38.0304 36.6004 37.9845C40.0899 37.9491 42.3313 36.181 42.3634 32.2029C42.3998 28.5084 40.1413 26.4234 36.6004 26.4234ZM22.902 20.4456H16.1951V43.7502H22.902V20.4456Z" class="fill-white"></path></g></g><defs><filter id="filter0_dddd_8651_4614" x="10.5631" y="19.1176" width="47.0337" height="48.1593" filterUnits="userSpaceOnUse" color-interpolation-filters="sRGB"><feFlood flood-opacity="0" result="BackgroundImageFix"></feFlood><feColorMatrix in="SourceAlpha" type="matrix" values="0 0 0 0 0 0 0 0 0 0 0 0 0 0 0 0 0 0 127 0" result="hardAlpha"></feColorMatrix><feOffset dy="0.853333"></feOffset><feGaussianBlur stdDeviation="0.981334"></feGaussianBlur><feColorMatrix type="matrix" values="0 0 0 0 0 0 0 0 0 0 0 0 0 0 0 0 0 0 0.1 0"></feColorMatrix><feBlend mode="normal" in2="BackgroundImageFix" result="effect1_dropShadow_8651_4614"></feBlend><feColorMatrix in="SourceAlpha" type="matrix" values="0 0 0 0 0 0 0 0 0 0 0 0 0 0 0 0 0 0 127 0" result="hardAlpha"></feColorMatrix><feOffset dy="3.49867"></feOffset><feGaussianBlur stdDeviation="1.74933"></feGaussianBlur><feColorMatrix type="matrix" values="0 0 0 0 0 0 0 0 0 0 0 0 0 0 0 0 0 0 0.09 0"></feColorMatrix><feBlend mode="normal" in2="effect1_dropShadow_8651_4614" result="effect2_dropShadow_8651_4614"></feBlend><feColorMatrix in="SourceAlpha" type="matrix" values="0 0 0 0 0 0 0 0 0 0 0 0 0 0 0 0 0 0 127 0" result="hardAlpha"></feColorMatrix><feOffset dy="7.936"></feOffset><feGaussianBlur stdDeviation="2.38933"></feGaussianBlur><feColorMatrix type="matrix" values="0 0 0 0 0 0 0 0 0 0 0 0 0 0 0 0 0 0 0.05 0"></feColorMatrix><feBlend mode="normal" in2="effect2_dropShadow_8651_4614" result="effect3_dropShadow_8651_4614"></feBlend><feColorMatrix in="SourceAlpha" type="matrix" values="0 0 0 0 0 0 0 0 0 0 0 0 0 0 0 0 0 0 127 0" result="hardAlpha"></feColorMatrix><feOffset dy="14.08"></feOffset><feGaussianBlur stdDeviation="2.816"></feGaussianBlur><feColorMatrix type="matrix" values="0 0 0 0 0 0 0 0 0 0 0 0 0 0 0 0 0 0 0.01 0"></feColorMatrix><feBlend mode="normal" in2="effect3_dropShadow_8651_4614" result="effect4_dropShadow_8651_4614"></feBlend><feBlend mode="normal" in="SourceGraphic" in2="effect4_dropShadow_8651_4614" result="shape"></feBlend></filter><clipPath id="clip0_8651_4614"><rect x="0.205444" width="64" height="64" rx="16" fill="white"></rect></clipPath></defs></svg>